# xmcd
#
# Track frame offsets:
#	150
#	32310
#	65817
#	99594
#	130014
#	160806
#	194704
#	228809
#	259987
#
# Disc length: 3926 seconds
#
# Revision: 1
# Processed by: cddbd v1.5.2PL0 Copyright (c) Steve Scherf et al.
# Submitted via: audiograbber 1.83.01
#
DISCID=760f5409
DTITLE=Various Artist - VA - Intercept [Yoyo 63 (10/04)]
DYEAR=2004
DGENRE=Psytrance
TTITLE0=Fatali - Gaya
TTITLE1=Infected Mushroom (Beat Hackers Rmx) - Elation Station
TTITLE2=Beat Hackers and Michelle Adamson - When The Lights Go Out
TTITLE3=Time Lock - Skylines
TTITLE4=Reflex Vs Side Effect - Jump
TTITLE5=Oforia - High Gear
TTITLE6=Echotek - Space Stretch
TTITLE7=Safi Connection - Im Next
TTITLE8=Quantum - Enlightening
EXTD=
EXTT0=
EXTT1=
EXTT2=
EXTT3=
EXTT4=
EXTT5=
EXTT6=
EXTT7=
EXTT8=
PLAYORDER=
